:FULLY-SPECIFIED
:FORCE-ALL-JOINTS-BE-3DOF
:DEGREES
136
root 7.6464 16.7101 -26.3036 -6.43423 16.305 -0.602882
lfemur -9.73222 15.6545 -16.2755
ltibia 30.5145 -0 0
lfoot -11.2248 -2.29053 0.306833
ltoes 35.601 -0 0
rfemur -63.3621 -19.801 13.819
rtibia 67.6762 -0 0
rfoot 11.8347 9.19741 -0.526247
rtoes -12.6374 0 0
lowerback 12.0766 -3.79166 -3.51254
upperback 3.69416 -5.38007 0.737569
thorax -2.46423 -2.68928 3.33018
lowerneck -11.6714 -2.76553 0.117085
upperneck 1.34245 -3.8119 2.49252
head 2.52812 -1.80967 0.569084
lclavicle 9.79511e-014 0 0
lhumerus -40.1511 -23.5265 96.2066
lradius 49.3757 -0 0
lwrist 12.0365 0 0
lhand 16.3668 11.6035 0.716353
lfingers 7.12502 -0 0
lthumb 40.9665 35.1316 0.170023
rclavicle 9.79511e-014 0 0
rhumerus -46.7228 -9.48185 -62.1023
rradius 76.4763 -0 0
rwrist -5.07746 0 0
rhand 15.9838 -11.6076 0.723026
rfingers 7.12502 -0 0
rthumb 40.5729 -35.1699 1.1967
137
root 7.61358 16.6885 -26.2866 -6.13753 16.8934 -0.67203
lfemur -10.1937 16.2983 -16.1544
ltibia 30.7216 -0 0
lfoot -11.0337 -1.45153 0.318038
ltoes 35.8123 -0 0
rfemur -62.9597 -20.0434 13.6762
rtibia 69.5682 -0 0
rfoot 12.3986 8.71018 -0.545445
rtoes -11.9109 0 0
lowerback 11.8204 -3.96771 -3.54305
upperback 3.58345 -5.61189 0.690777
thorax -2.42361 -2.80447 3.30609
lowerneck -11.6336 -2.83898 0.0325975
upperneck 1.36979 -3.90438 2.61628
head 2.53774 -1.85203 0.618862
lclavicle 9.79511e-014 0 0
lhumerus -40.1725 -24.3106 96.5711
lradius 49.3877 -0 0
lwrist 12.0264 0 0
lhand 17.2094 12.048 0.74254
lfingers 7.12502 -0 0
lthumb 41.7459 35.2456 0.176228
rclavicle 9.79511e-014 0 0
rhumerus -47.2017 -9.90129 -62.7065
rradius 77.5452 -0 0
rwrist -5.38132 0 0
rhand 16.8552 -11.1736 0.749463
rfingers 7.12502 -0 0
rthumb 41.384 -34.3972 1.24054
138
root 7.58077 16.6668 -26.2696 -5.84063 17.4821 -0.738204
lfemur -10.6553 16.943 -16.0383
ltibia 30.9287 -0 0
lfoot -10.8425 -0.612503 0.326445
ltoes 36.0237 -0 0
rfemur -62.5559 -20.2848 13.5314
rtibia 71.4602 -0 0
rfoot 12.9626 8.22278 -0.559846
rtoes -11.1844 0 0
lowerback 11.5643 -4.14389 -3.57278
upperback 3.47288 -5.8438 0.644416
thorax -2.38294 -2.91964 3.28192
lowerneck -11.5956 -2.91237 -0.0519434
upperneck 1.39694 -3.99691 2.74001
head 2.54733 -1.8944 0.668633
lclavicle 9.79511e-014 0 0
lhumerus -40.1994 -25.0945 96.9384
lradius 49.3997 -0 0
lwrist 12.0162 0 0
lhand 18.0522 12.4929 0.762186
lfingers 7.12502 -0 0
lthumb 42.5254 35.3595 0.180883
rclavicle 9.79511e-014 0 0
rhumerus -47.6767 -10.3257 -63.3079
rradius 78.614 -0 0
rwrist -5.68518 0 0
rhand 17.7268 -10.7394 0.769297
rfingers 7.12502 -0 0
rthumb 42.1957 -33.6239 1.27343
139
root 7.54795 16.6451 -26.2526 -5.54347 18.0711 -0.801386
lfemur -11.1171 17.5885 -15.9273
ltibia 31.1357 -0 0
lfoot -10.6511 0.226548 0.33205
ltoes 36.2351 -0 0
rfemur -62.1509 -20.5253 13.3845
rtibia 73.3522 -0 0
rfoot 13.5268 7.73527 -0.569448
rtoes -10.4579 0 0
lowerback 11.3083 -4.3202 -3.60172
upperback 3.36246 -6.0758 0.598486
thorax -2.34222 -3.03479 3.25767
lowerneck -11.5576 -2.9857 -0.136539
upperneck 1.42389 -4.08951 2.8637
head 2.55687 -1.93678 0.718399
lclavicle 9.79511e-014 0 0
lhumerus -40.2321 -25.8782 97.3084
lradius 49.4116 -0 0
lwrist 12.006 0 0
lhand 18.8951 12.938 0.775287
lfingers 7.12502 -0 0
lthumb 43.3049 35.4736 0.183986
rclavicle 9.79511e-014 0 0
rhumerus -48.1478 -10.7549 -63.9065
rradius 79.6829 -0 0
rwrist -5.98903 0 0
rhand 18.5985 -10.3049 0.782523
rfingers 7.12502 -0 0
rthumb 43.0077 -32.8503 1.29536
140
root 7.51513 16.6234 -26.2356 -5.24597 18.6604 -0.861559
lfemur -11.5793 18.2349 -15.8213
ltibia 31.3428 -0 0
lfoot -10.4597 1.06561 0.334853
ltoes 36.4464 -0 0
rfemur -61.7446 -20.7648 13.2357
rtibia 75.2442 -0 0
rfoot 14.091 7.24768 -0.57425
rtoes -9.73143 0 0
lowerback 11.0522 -4.49664 -3.62988
upperback 3.25218 -6.30789 0.552986
thorax -2.30144 -3.14993 3.23333
lowerneck -11.5194 -3.05898 -0.221188
upperneck 1.45065 -4.18217 2.98737
head 2.56638 -1.97917 0.768159
lclavicle 9.79511e-014 0 0
lhumerus -40.2707 -26.6617 97.6814
lradius 49.4236 -0 0
lwrist 11.9958 0 0
lhand 19.7381 13.3832 0.781838
lfingers 7.12502 -0 0
lthumb 44.0844 35.5877 0.185538
rclavicle 9.79511e-014 0 0
rhumerus -48.615 -11.189 -64.5024
rradius 80.7518 -0 0
rwrist -6.29289 0 0
rhand 19.4703 -9.87018 0.789137
rfingers 7.12502 -0 0
rthumb 43.8199 -32.0764 1.30633
141
root 7.48232 16.6017 -26.2187 -4.94808 19.25 -0.918703
lfemur -12.042 18.882 -15.7204
ltibia 31.5499 -0 0
lfoot -10.2683 1.90469 0.334853
ltoes 36.6578 -0 0
rfemur -61.337 -21.0033 13.0847
rtibia 77.1361 -0 0
rfoot 14.6552 6.76006 -0.57425
rtoes -9.00495 0 0
lowerback 10.7962 -4.6732 -3.65726
upperback 3.14203 -6.54006 0.507914
thorax -2.26061 -3.26505 3.2089
lowerneck -11.4811 -3.1322 -0.305893
upperneck 1.4772 -4.27488 3.11101
head 2.57585 -2.02156 0.817913
lclavicle 9.79511e-014 0 0
lhumerus -40.3153 -27.445 98.0576
lradius 49.4356 -0 0
lwrist 11.9856 0 0
lhand 20.5812 13.8285 0.781838
lfingers 7.12502 -0 0
lthumb 44.8638 35.7017 0.185538
rclavicle 9.79511e-014 0 0
rhumerus -49.0783 -11.6278 -65.0956
rradius 81.8206 -0 0
rwrist -6.59675 0 0
rhand 20.3422 -9.43545 0.789137
rfingers 7.12502 -0 0
rthumb 44.6323 -31.3025 1.30633
142
root 7.4495 16.58 -26.2017 -4.64972 19.8399 -0.972797
lfemur -12.5053 19.53 -15.6247
ltibia 31.757 -0 0
lfoot -10.0769 2.74375 0.33205
ltoes 36.8691 -0 0
rfemur -60.9281 -21.2408 12.9317
rtibia 79.0281 -0 0
rfoot 15.2195 6.27248 -0.569448
rtoes -8.27846 0 0
lowerback 10.5402 -4.84988 -3.68385
upperback 3.03201 -6.77232 0.463271
thorax -2.21973 -3.38015 3.18439
lowerneck -11.4428 -3.20537 -0.390652
upperneck 1.50356 -4.36765 3.23462
head 2.58529 -2.06396 0.867661
lclavicle 9.79511e-014 0 0
lhumerus -40.3661 -28.228 98.4373
lradius 49.4476 -0 0
lwrist 11.9754 0 0
lhand 21.4242 14.2738 0.775287
lfingers 7.12502 -0 0
lthumb 45.6433 35.8158 0.183986
rclavicle 9.79511e-014 0 0
rhumerus -49.5377 -12.0712 -65.6861
rradius 82.8895 -0 0
rwrist -6.90061 0 0
rhand 21.214 -9.00078 0.782523
rfingers 7.12502 -0 0
rthumb 45.4445 -30.5286 1.29536
143
root 7.41668 16.5583 -26.1847 -4.35083 20.43 -1.02382
lfemur -12.9693 20.1786 -15.5342
ltibia 31.964 -0 0
lfoot -9.88562 3.5828 0.326445
ltoes 37.0805 -0 0
rfemur -60.5178 -21.4772 12.7767
rtibia 80.9201 -0 0
rfoot 15.7836 5.78496 -0.559846
rtoes -7.55198 0 0
lowerback 10.2842 -5.02668 -3.70966
upperback 2.92212 -7.00466 0.419055
thorax -2.17879 -3.49524 3.1598
lowerneck -11.4043 -3.27848 -0.475466
upperneck 1.52972 -4.46047 3.3582
head 2.59469 -2.10638 0.917404
lclavicle 9.79511e-014 0 0
lhumerus -40.4232 -29.0107 98.8206
lradius 49.4595 -0 0
lwrist 11.9652 0 0
lhand 22.2671 14.7189 0.762186
lfingers 7.12502 -0 0
lthumb 46.4228 35.9299 0.180883
rclavicle 9.79511e-014 0 0
rhumerus -49.9932 -12.5193 -66.2739
rradius 83.9584 -0 0
rwrist -7.20446 0 0
rhand 22.0857 -8.56626 0.769297
rfingers 7.12502 -0 0
rthumb 46.2565 -29.755 1.27343
